<svg xmlns="http://www.w3.org/2000/svg" viewBox="0 0 200 180" fill="none">
  <!-- 第二片纸胶带 -->
  <rect x="24" y="12" width="156" height="20" rx="2" fill="#b6cdd9" opacity="0.4" transform="rotate(6, 102, 22)" />
  <rect x="26" y="14" width="152" height="16" rx="1.5" fill="#cde0e8" opacity="0.6" transform="rotate(6, 102, 22)" />
  
  <!-- 小茶杯 -->
  <path d="M112 52 L118 52 L120 68 C120 72 116 74 110 74 C104 74 100 72 100 68 L102 52Z" fill="#fcfaf5" stroke="#d8d8cb" stroke-width="1" opacity="0.75" />
  <path d="M118 56 C124 56 126 60 126 64 C126 68 124 72 118 72" fill="none" stroke="#d8d8cb" stroke-width="0.8" opacity="0.55" />
  <!-- 杯嘴热气 -->
  <path d="M112 48 Q114 42 112 38" fill="none" stroke="#d8d8cb" stroke-width="0.6" stroke-dasharray="2 3" opacity="0.35" />
  <path d="M116 46 Q118 40 116 36" fill="none" stroke="#d8d8cb" stroke-width="0.6" stroke-dasharray="2 3" opacity="0.3" />
  
  <!-- 小野花 -->
  <circle cx="48" cy="96" r="4" fill="#e7c4c0" opacity="0.5" />
  <circle cx="44" cy="100" r="3.5" fill="#f5d6d2" opacity="0.45" />
  <circle cx="52" cy="100" r="3.2" fill="#daa49e" opacity="0.4" />
  <line x1="48" y1="100" x2="48" y2="118" stroke="#8fa389" stroke-width="0.8" opacity="0.4" />
  
  <!-- 小蝴蝶结 -->
  <path d="M156 130 Q162 124 156 120 Q150 124 156 130Z" fill="#e7c4c0" opacity="0.4" />
  
  <!-- 点状装饰 -->
  <circle cx="170" cy="40" r="1.5" fill="#c6d7b6" opacity="0.5" />
  <circle cx="20" cy="150" r="1" fill="#c6d7b6" opacity="0.4" />
  <circle cx="180" cy="90" r="1.2" fill="#c6d7b6" opacity="0.35" />
</svg>
